<?xml version="1.0" encoding="utf-8"?>
<!-- Svg Vector Icons : http://www.onlinewebfonts.com/icon -->
<!DOCTYPE svg PUBLIC "-//W3C//DTD SVG 1.1//EN" "http://www.w3.org/Graphics/SVG/1.1/DTD/svg11.dtd">
<svg version="1.1" xmlns="http://www.w3.org/2000/svg" xmlns:xlink="http://www.w3.org/1999/xlink" x="0px" y="0px" viewBox="0 0 1000 1000" enable-background="new 0 0 1000 1000" xml:space="preserve">
<metadata> Svg Vector Icons : http://www.onlinewebfonts.com/icon </metadata>
<g><g transform="translate(0.000000,511.000000) scale(0.100000,-0.100000)"><path d="M7561.7,4695.8c-86.4-19.2-172.8-107.5-195.8-193.9c-13.4-46.1-17.3-1593.3-15.4-4438.2l5.8-4369.1l40.3-51.8c21.1-28.8,63.4-71,92.1-92.1c51.8-40.3,71-40.3,1130.7-40.3c1044.3,0,1080.8,1.9,1142.2,38.4c36.5,21.1,80.6,71,101.7,109.4c36.5,69.1,36.5,182.4,36.5,4451.6c0,4875.9,11.5,4463.2-132.5,4551.5l-69.1,44.2l-1036.6,3.8C8091.5,4711.2,7596.2,4705.4,7561.7,4695.8z M9343.1,107.9v-4050.4h-719.9h-719.9V107.9v4050.4h719.9h719.9V107.9z"/><path d="M1290.2,1244.3C635.6,633.9,100,123.2,100,107.9c0-13.4,535.6-524,1190.2-1134.5l1190.2-1109.6l186.2,195.8c103.7,107.5,186.2,201.6,182.4,207.3c-1.9,7.7-380.1,360.9-838.9,787.1l-833.1,775.5l2745.1,9.6c2578.1,9.6,2748.9,11.5,2796.9,44.2c28.8,17.3,65.3,61.4,82.5,94.1c63.4,120.9,25,286-82.5,355.1c-48,32.6-218.8,34.5-2796.9,44.1l-2745.1,9.6l833.1,775.5c458.8,426.2,837,781.3,840.8,787.1c1.9,7.7-80.6,101.7-182.4,209.2l-188.1,195.8L1290.2,1244.3z"/></g></g>
</svg>